arm26_motion_5
version=1
nRows=11
nColumns=3
inDegrees=yes
endheader
time	r_shoulder_elev	r_elbow_flex
      0.00000000	     30.00000000	     20.00000000
      0.10000000	     30.00000000	     40.00000000
      0.20000000	     30.00000000	     60.00000000
      0.30000000	     30.00000000	     90.00000000
      0.40000000	     30.00000000	    120.00000000
      0.50000000	     30.00000000	    140.00000000
      0.60000000	     30.00000000	    120.00000000
      0.70000000	     30.00000000	     90.00000000
      0.80000000	     30.00000000	     60.00000000
      0.90000000	     30.00000000	     40.00000000
      1.00000000	     30.00000000	     20.00000000
